<svg xmlns="http://www.w3.org/2000/svg" viewBox="0 0 1200 240" role="img" aria-labelledby="title desc">
  <title id="title">Permissions and keys divider</title>
  <desc id="desc">Abstract divider showing permission chips, key capsules, and a tunnel identifier route.</desc>
  <rect width="1200" height="240" rx="34" fill="#f3ecdf"/>
  <path d="M80 154C214 76 376 76 522 138C676 204 842 198 1124 92" fill="none" stroke="#12304a" stroke-opacity="0.18" stroke-width="10" stroke-linecap="round"/>
  <path d="M84 154C214 76 376 76 522 138C676 204 842 198 1124 92" fill="none" stroke="#0d8b84" stroke-width="4" stroke-dasharray="12 14" stroke-linecap="round"/>
  <g transform="translate(104 98)">
    <rect width="134" height="58" rx="29" fill="#12304a"/>
    <rect x="18" y="18" width="98" height="22" rx="11" fill="#80efe7"/>
  </g>
  <g transform="translate(320 52)">
    <rect width="190" height="72" rx="26" fill="#fffdf8" stroke="#12304a" stroke-opacity="0.14"/>
    <rect x="18" y="18" width="74" height="12" rx="6" fill="#12304a" opacity="0.18"/>
    <rect x="18" y="40" width="154" height="14" rx="7" fill="#f2b443"/>
  </g>
  <g transform="translate(562 116)">
    <rect width="252" height="72" rx="26" fill="#fffdf8" stroke="#12304a" stroke-opacity="0.14"/>
    <rect x="20" y="18" width="180" height="12" rx="6" fill="#12304a" opacity="0.14"/>
    <rect x="20" y="40" width="210" height="14" rx="7" fill="#ff8a75"/>
  </g>
  <g transform="translate(912 42)">
    <circle cx="74" cy="74" r="74" fill="#12304a"/>
    <circle cx="74" cy="74" r="46" fill="#f2b443"/>
    <circle cx="74" cy="74" r="16" fill="#fffdf8"/>
  </g>
</svg>
